<mxfile host="app.diagrams.net" modified="2023-02-25T02:29:31.875Z" agent="5.0 (Macintosh; Intel Mac OS X 10_15_7) AppleWebKit/537.36 (KHTML, like Gecko) Chrome/110.0.0.0 Safari/537.36" etag="q9cc2ZvsRXk3uWlQISDP" version="20.8.23" type="github">
  <diagram name="Page-1" id="_wqs5u2T2B2X7hY4PwwE">
    <mxGraphModel dx="830" dy="541" grid="1" gridSize="10" guides="1" tooltips="1" connect="1" arrows="1" fold="1" page="1" pageScale="1" pageWidth="850" pageHeight="1100" math="0" shadow="0">
      <root>
        <mxCell id="0" />
        <mxCell id="1" parent="0" />
        <mxCell id="_A_PaAWHT2ymnVVghD13-1" value="Alice" style="shape=umlActor;verticalLabelPosition=bottom;verticalAlign=top;html=1;outlineConnect=0;" vertex="1" parent="1">
          <mxGeometry x="130" y="370" width="30" height="60" as="geometry" />
        </mxCell>
        <mxCell id="_A_PaAWHT2ymnVVghD13-10" style="edgeStyle=orthogonalEdgeStyle;rounded=0;orthogonalLoop=1;jettySize=auto;html=1;" edge="1" parent="1" source="_A_PaAWHT2ymnVVghD13-19" target="_A_PaAWHT2ymnVVghD13-15">
          <mxGeometry relative="1" as="geometry">
            <mxPoint x="439.2500000000002" y="436" as="sourcePoint" />
            <mxPoint x="430" y="530" as="targetPoint" />
          </mxGeometry>
        </mxCell>
        <mxCell id="_A_PaAWHT2ymnVVghD13-5" value="" style="endArrow=classic;html=1;rounded=0;" edge="1" parent="1" source="_A_PaAWHT2ymnVVghD13-1" target="_A_PaAWHT2ymnVVghD13-19">
          <mxGeometry width="50" height="50" relative="1" as="geometry">
            <mxPoint x="200" y="400" as="sourcePoint" />
            <mxPoint x="365" y="400" as="targetPoint" />
          </mxGeometry>
        </mxCell>
        <mxCell id="_A_PaAWHT2ymnVVghD13-6" value="1. create a new trade set" style="text;html=1;align=center;verticalAlign=middle;resizable=0;points=[];autosize=1;strokeColor=none;fillColor=none;" vertex="1" parent="1">
          <mxGeometry x="170" y="375" width="160" height="30" as="geometry" />
        </mxCell>
        <mxCell id="_A_PaAWHT2ymnVVghD13-8" value="" style="endArrow=classic;html=1;rounded=0;" edge="1" parent="1" source="_A_PaAWHT2ymnVVghD13-1" target="_A_PaAWHT2ymnVVghD13-15">
          <mxGeometry width="50" height="50" relative="1" as="geometry">
            <mxPoint x="180" y="560" as="sourcePoint" />
            <mxPoint x="380" y="536.0526315789473" as="targetPoint" />
          </mxGeometry>
        </mxCell>
        <mxCell id="_A_PaAWHT2ymnVVghD13-9" value="3. deposit and &lt;br&gt;manage trade jobs" style="text;html=1;align=center;verticalAlign=middle;resizable=0;points=[];autosize=1;strokeColor=none;fillColor=none;" vertex="1" parent="1">
          <mxGeometry x="180" y="475" width="120" height="40" as="geometry" />
        </mxCell>
        <mxCell id="_A_PaAWHT2ymnVVghD13-11" value="2. deploy &lt;br&gt;the contract" style="text;html=1;align=center;verticalAlign=middle;resizable=0;points=[];autosize=1;strokeColor=none;fillColor=none;" vertex="1" parent="1">
          <mxGeometry x="350" y="460" width="90" height="40" as="geometry" />
        </mxCell>
        <mxCell id="_A_PaAWHT2ymnVVghD13-12" value="Miners" style="shape=umlActor;verticalLabelPosition=bottom;verticalAlign=top;html=1;outlineConnect=0;" vertex="1" parent="1">
          <mxGeometry x="130" y="550" width="30" height="60" as="geometry" />
        </mxCell>
        <mxCell id="_A_PaAWHT2ymnVVghD13-13" value="" style="endArrow=classic;html=1;rounded=0;" edge="1" parent="1" source="_A_PaAWHT2ymnVVghD13-12" target="_A_PaAWHT2ymnVVghD13-15">
          <mxGeometry width="50" height="50" relative="1" as="geometry">
            <mxPoint x="300" y="520" as="sourcePoint" />
            <mxPoint x="380" y="579.9122807017543" as="targetPoint" />
          </mxGeometry>
        </mxCell>
        <mxCell id="_A_PaAWHT2ymnVVghD13-14" value="4. trigger the job execution" style="text;html=1;align=center;verticalAlign=middle;resizable=0;points=[];autosize=1;strokeColor=none;fillColor=none;" vertex="1" parent="1">
          <mxGeometry x="200" y="590" width="160" height="30" as="geometry" />
        </mxCell>
        <mxCell id="_A_PaAWHT2ymnVVghD13-15" value="Trade Contract" style="shape=note;whiteSpace=wrap;html=1;backgroundOutline=1;darkOpacity=0.05;" vertex="1" parent="1">
          <mxGeometry x="400" y="530" width="80" height="100" as="geometry" />
        </mxCell>
        <mxCell id="_A_PaAWHT2ymnVVghD13-19" value="ProjectX" style="shape=note;whiteSpace=wrap;html=1;backgroundOutline=1;darkOpacity=0.05;" vertex="1" parent="1">
          <mxGeometry x="400" y="350" width="80" height="100" as="geometry" />
        </mxCell>
        <mxCell id="_A_PaAWHT2ymnVVghD13-20" value="Other accounts&lt;br&gt;and contracts" style="ellipse;shape=cloud;whiteSpace=wrap;html=1;" vertex="1" parent="1">
          <mxGeometry x="600" y="525" width="170" height="110" as="geometry" />
        </mxCell>
        <mxCell id="_A_PaAWHT2ymnVVghD13-21" value="" style="endArrow=classic;html=1;rounded=0;" edge="1" parent="1" source="_A_PaAWHT2ymnVVghD13-15" target="_A_PaAWHT2ymnVVghD13-20">
          <mxGeometry width="50" height="50" relative="1" as="geometry">
            <mxPoint x="170" y="590" as="sourcePoint" />
            <mxPoint x="410" y="590" as="targetPoint" />
          </mxGeometry>
        </mxCell>
        <mxCell id="_A_PaAWHT2ymnVVghD13-22" value="5. execute the job" style="text;html=1;align=center;verticalAlign=middle;resizable=0;points=[];autosize=1;strokeColor=none;fillColor=none;" vertex="1" parent="1">
          <mxGeometry x="480" y="580" width="120" height="30" as="geometry" />
        </mxCell>
        <mxCell id="_A_PaAWHT2ymnVVghD13-23" value="" style="endArrow=classic;html=1;rounded=0;exitX=0;exitY=0;exitDx=80;exitDy=30;exitPerimeter=0;entryX=0;entryY=0;entryDx=80;entryDy=65;entryPerimeter=0;" edge="1" parent="1" source="_A_PaAWHT2ymnVVghD13-15" target="_A_PaAWHT2ymnVVghD13-19">
          <mxGeometry width="50" height="50" relative="1" as="geometry">
            <mxPoint x="490" y="525" as="sourcePoint" />
            <mxPoint x="540" y="475" as="targetPoint" />
            <Array as="points">
              <mxPoint x="520" y="560" />
              <mxPoint x="520" y="415" />
            </Array>
          </mxGeometry>
        </mxCell>
        <mxCell id="_A_PaAWHT2ymnVVghD13-24" value="6. pay the transaction fee,&lt;br&gt;update the latest tokens &lt;br&gt;for Alice and miners" style="text;html=1;align=center;verticalAlign=middle;resizable=0;points=[];autosize=1;strokeColor=none;fillColor=none;" vertex="1" parent="1">
          <mxGeometry x="530" y="420" width="160" height="60" as="geometry" />
        </mxCell>
      </root>
    </mxGraphModel>
  </diagram>
</mxfile>
